<svg xmlns="http://www.w3.org/2000/svg" viewBox="0 0 100.24 88.18"><defs><style>.ala{fill:#f26649;}</style></defs><title>ala</title><path class="ala" d="M51.05.34a7.19,7.19,0,0,0-4.68,9l4.78,15.06L45.69,34.94l-14.22-1-22-7.21A7.2,7.2,0,0,0,5,40.41l11,3.59-4.76,4.13A7.19,7.19,0,0,0,20.61,59L32.54,48.62l11.89.84,2.11,6.65-17.7,4.14a7.19,7.19,0,1,0,3.28,14l20.05-4.68L60,84.35a7.19,7.19,0,0,0,13.53-2.88,7.09,7.09,0,0,0-.82-3.86L62.59,58.49,57.77,43.3,64.13,31l31.3-11.9a7.19,7.19,0,0,0,4.79-6.28A7.07,7.07,0,0,0,99.83,10a7.19,7.19,0,0,0-9.17-4.4L63.55,16,60.08,5A7.19,7.19,0,0,0,51.05.34Z"/></svg>