<svg xmlns="http://www.w3.org/2000/svg" width="50" height="44" viewBox="0 0 50 44">
  <defs>
    <style>
      .cls-1 {
        fill: #FFFFFF;
        fill-rule: evenodd;
      }
    </style>
  </defs>
  <path class="cls-1" d="M392.2,1059.75a15.764,15.764,0,0,1,15.614,16.99,20.769,20.769,0,0,0-4.58-.53,18.613,18.613,0,0,0-3.259.29,18.918,18.918,0,0,0-4.048,1.21c-0.189-.24-0.4-0.49-0.628-0.76l-0.085-.11-1.136-2.18L394.6,1073l5.179-3.11a2.647,2.647,0,0,0,1.335-2.58,2.618,2.618,0,0,0-3.9-2.02l-0.023.01-0.022.01-3.738,2.27-0.439-.85a2.606,2.606,0,0,0-2.327-1.42,2.72,2.72,0,0,0-1.215.3,2.65,2.65,0,0,0-1.109,3.56l1.2,2.3-0.3.96-0.22.02a32.465,32.465,0,0,0-11.571-2.34,15.641,15.641,0,0,1,12.011-10.12,15.834,15.834,0,0,1,2.743-.24m0-1.75a16.651,16.651,0,0,0-3.046.27,17.453,17.453,0,0,0-14.011,13.56h0.23c0.28,0,.567,0,0.862.01a30.692,30.692,0,0,1,12.494,2.41l1.828-.19,0.862-2.76-1.531-2.94a0.883,0.883,0,0,1,.372-1.19,0.832,0.832,0,0,1,.4-0.1,0.8,0.8,0,0,1,.264.04,0.859,0.859,0,0,1,.515.43l1.3,2.5,5.326-3.22a0.844,0.844,0,0,1,.429-0.12,0.9,0.9,0,0,1,.767.45,0.879,0.879,0,0,1,.108.34,0.891,0.891,0,0,1-.453.87l-5.79,3.47-0.934,3,1.544,2.96,0.212,0.28a13.4,13.4,0,0,1,.992,1.26c0.03,0.04.058,0.09,0.088,0.14l0.341,0.44a16.965,16.965,0,0,1,4.9-1.68,16.182,16.182,0,0,1,2.956-.26,19.654,19.654,0,0,1,6.031.99A17.511,17.511,0,0,0,392.2,1058h0Zm11.049,22.75a17.142,17.142,0,0,1,5.537.98,11.918,11.918,0,0,0-2.526,4.24c-0.057.18-.125,0.41-0.2,0.68-0.779,2.62-2.955,9.94-8.159,11.71,1.812-6.64,1.888-12.22.226-16.66a14.328,14.328,0,0,1,5.127-.95m0-1.76a16.163,16.163,0,0,0-7.425,1.82c2.459,4.8,2.327,11.41-.4,19.69h0.084c8.878,0,11.648-11.59,12.412-13.99a11.8,11.8,0,0,1,4.071-5.36,20.282,20.282,0,0,0-8.744-2.16h0Zm-39.847-6.7a15.731,15.731,0,0,0,7.78,2.41h0.06c0.318,0,.735-0.02,1.234-0.03,0.788-.03,1.768-0.06,2.89-0.06,8.572,0,14.376,2.09,17.252,6.23,2.928,4.21,2.935,10.69.023,19.27-4.11-.49-17.015-2.69-24.2-11.42-3.631-4.4-5.32-9.91-5.037-16.4m-1.476-3.16c-3.939,30.77,31.906,32.86,31.906,32.86,9.773-26.87-9.115-29.14-18.466-29.14-1.85,0-3.325.09-4.134,0.1h-0.05c-4.872,0-9.256-3.82-9.256-3.82h0Zm5.442,8.82s21.639,2.4,24.189,17.55C391.561,1095.5,381.6,1081.2,367.372,1077.95Z" transform="translate(-361.625 -1058)"/>
</svg>
