<svg xmlns="http://www.w3.org/2000/svg" width="50" height="49" viewBox="0 0 50 49">
  <defs>
    <style>
      .cls-1 {
        fill: #212121;
        fill-rule: evenodd;
      }
    </style>
  </defs>
  <path class="cls-1" d="M386,1173.28a6.63,6.63,0,1,0-6.643-6.63A6.648,6.648,0,0,0,386,1173.28Zm0-11.41a4.775,4.775,0,1,1-4.783,4.78A4.784,4.784,0,0,1,386,1161.87Zm10.727,17.79a5.152,5.152,0,0,0-5.148-5.14H380.417a5.152,5.152,0,0,0-5.148,5.14v3.9h21.454v-3.9Zm-1.861,2.04H377.129v-2.04a3.287,3.287,0,0,1,3.288-3.28h11.158a3.287,3.287,0,0,1,3.287,3.28v2.04Zm-23.127,17.02a6.63,6.63,0,1,0-6.644-6.63A6.647,6.647,0,0,0,371.735,1198.72Zm0-11.41a4.775,4.775,0,1,1-4.784,4.78A4.784,4.784,0,0,1,371.735,1187.31Zm5.578,12.65H366.156a5.154,5.154,0,0,0-5.149,5.14v3.9h21.454v-3.9A5.152,5.152,0,0,0,377.313,1199.96Zm3.288,7.18H362.868v-2.04a3.287,3.287,0,0,1,3.288-3.28h11.157a3.287,3.287,0,0,1,3.288,3.28v2.04Zm13.013-15.05a6.644,6.644,0,1,0,6.643-6.63A6.648,6.648,0,0,0,393.614,1192.09Zm6.643-4.78a4.775,4.775,0,1,1-4.783,4.78A4.785,4.785,0,0,1,400.257,1187.31Zm5.579,12.65H394.679a5.153,5.153,0,0,0-5.149,5.14v3.9h21.455v-3.9A5.153,5.153,0,0,0,405.836,1199.96Zm3.288,7.18H391.39v-2.04a3.287,3.287,0,0,1,3.289-3.28h11.157a3.287,3.287,0,0,1,3.288,3.28v2.04Zm-18.953-10.51a0.931,0.931,0,0,0,.522-1.7l-3.811-2.58v-4.64a0.931,0.931,0,0,0-1.861,0v4.73l-3.428,2.51a0.931,0.931,0,0,0,1.1,1.5l3.32-2.44,3.634,2.46A0.915,0.915,0,0,0,390.171,1196.63Z" transform="translate(-361 -1160)"/>
</svg>
