<svg xmlns="http://www.w3.org/2000/svg" width="50.002" height="50" viewBox="0 0 48 47.998">
<defs>
  <style>
    .cls-1 {
    fill: #fff;
    fill-rule: evenodd;
    }
  </style>
</defs>
<path class="cls-1" d="M748.556,392.228a1.009,1.009,0,0,0-.925-0.118l-14.956,5.5-14.956-5.5a1.014,1.014,0,0,0-.442-0.055,1.028,1.028,0,0,0-.384.055l-15.24,5.6a1,1,0,0,0-.659.941V438A1.006,1.006,0,0,0,702,439a1.029,1.029,0,0,0,.35-0.062l14.955-5.5,14.955,5.5a1.033,1.033,0,0,0,.35.062c0.021,0,.043-0.009.064-0.01s0.043,0.01.065,0.01a1.022,1.022,0,0,0,.348-0.062l15.241-5.6a1.006,1.006,0,0,0,.659-0.942V393.051A1,1,0,0,0,748.556,392.228ZM716.234,431.7l-13.224,4.861v-14.41a20.481,20.481,0,0,1,13.224,2.7V431.7Zm0-9.082a23.371,23.371,0,0,0-13.224-2.472V399.352l13.224-4.861v28.122Zm2.144,9.082v-5.37a25.352,25.352,0,0,1,6.429,7.733Zm13.225,4.861-4.078-1.5a0.951,0.951,0,0,0-.08-0.3,27.1,27.1,0,0,0-9.067-10.86v-29.4l13.225,4.861v37.2Zm15.369-4.861-13.225,4.861v-37.2l13.225-4.861v37.2Zm-24.986-14.884a1.01,1.01,0,0,0,1.425,0l1.579-1.572,1.581,1.572A1.005,1.005,0,0,0,728,415.393l-1.581-1.574L728,412.247a1,1,0,0,0,0-1.418,1.01,1.01,0,0,0-1.425,0L724.99,412.4l-1.579-1.572a1.01,1.01,0,0,0-1.425,0,1,1,0,0,0,0,1.418l1.58,1.572-1.58,1.574A1,1,0,0,0,721.986,416.811Z" transform="translate(-701 -391.516)"/>
</svg>
