<svg xmlns="http://www.w3.org/2000/svg" width="27" height="46" viewBox="0 0 27 46">
  <defs>
    <style>
      .cls-1 {
        fill: #212121;
        fill-rule: evenodd;
      }
    </style>
  </defs>
  <path class="cls-1" d="M803.975,1602H785.023a4.024,4.024,0,0,0-4.023,4.02v37.96a4.033,4.033,0,0,0,4.023,4.03h18.952a4.033,4.033,0,0,0,4.023-4.03v-37.96A4.024,4.024,0,0,0,803.975,1602Zm2.293,41.98a2.3,2.3,0,0,1-2.293,2.3H785.023a2.3,2.3,0,0,1-2.293-2.3v-37.96a2.3,2.3,0,0,1,2.293-2.29h18.952a2.3,2.3,0,0,1,2.293,2.29v37.96Zm-11.769-4.26a2.765,2.765,0,1,0,2.76,2.77A2.766,2.766,0,0,0,794.5,1639.72Zm0,4.03a1.265,1.265,0,1,1,1.263-1.27A1.269,1.269,0,0,1,794.5,1643.75Zm-1.264-37.35h2.528a0.87,0.87,0,0,0,0-1.74h-2.528A0.87,0.87,0,0,0,793.235,1606.4Z" transform="translate(-781 -1602)"/>
</svg>
