<svg xmlns="http://www.w3.org/2000/svg" width="50" height="46" viewBox="0 0 50 46">
  <defs>
    <style>
      .cls-1 {
        fill: #212121;
        fill-rule: evenodd;
      }
    </style>
  </defs>
  <path class="cls-1" d="M504.1,638.588c-6,0-12.953,6.759-15.954,13.02-2.2,4.59-2.249,8.564-.138,11.192,1.738,2.163,4.685.817,7.8-.609,2.515-1.15,5.351-2.452,8.134-2.4,2.82,0.054,5.709,1.367,8.257,2.525,2,0.907,3.929,1.785,5.5,1.784a2.822,2.822,0,0,0,2.557-1.394c1.952-3.09,1.509-7.7-1.216-12.645C515.9,644.361,509.755,638.588,504.1,638.588Zm14.477,23.059c-0.633,1.006-2.521.241-5.553-1.137-2.724-1.238-5.811-2.641-9.041-2.7l-0.208,0c-3.143,0-6.139,1.369-8.79,2.58-2.9,1.325-4.713,2.063-5.429,1.171-1.583-1.969-1.444-5.283.381-9.089,2.752-5.743,9.1-11.892,14.163-11.892,4.244,0,9.92,4.491,13.2,10.446C519.664,655.314,520.129,659.187,518.574,661.647ZM509.45,633.4a3.788,3.788,0,0,0,1.039.145,4.9,4.9,0,0,0,3.19-1.334,9.263,9.263,0,0,0,2.685-4.443c1.122-3.941-.157-7.644-2.912-8.428a4.519,4.519,0,0,0-4.229,1.189,9.863,9.863,0,0,0-2.742,9.634A4.511,4.511,0,0,0,509.45,633.4Zm-1-7.885a7.27,7.27,0,0,1,2.078-3.488,3.1,3.1,0,0,1,1.894-.845,1.811,1.811,0,0,1,.488.068c1.628,0.464,2.336,3.2,1.546,5.975a7.27,7.27,0,0,1-2.078,3.488,2.243,2.243,0,0,1-4-1.137A7.274,7.274,0,0,1,508.448,625.519Zm-18.5,9.516c-1.343-3.871-4.523-6.169-7.22-5.231h0c-2.706.94-3.773,4.709-2.43,8.581a9.249,9.249,0,0,0,2.933,4.283,5,5,0,0,0,3.042,1.157,3.791,3.791,0,0,0,1.247-.209C490.224,642.678,491.291,638.909,489.947,635.035Zm-3.081,6.705a2.737,2.737,0,0,1-2.421-.641,7.269,7.269,0,0,1-2.273-3.366c-0.946-2.726-.394-5.5,1.2-6.053s3.748,1.281,4.695,4.007S488.466,641.186,486.866,641.74ZM525.194,629.8c-2.7-.938-5.878,1.36-7.221,5.231s-0.276,7.643,2.429,8.581a3.8,3.8,0,0,0,1.248.209,5.009,5.009,0,0,0,3.042-1.157,9.248,9.248,0,0,0,2.932-4.283C528.967,634.513,527.9,630.744,525.194,629.8Zm0.555,7.929a7.276,7.276,0,0,1-2.273,3.366,2.737,2.737,0,0,1-2.422.641c-1.6-.554-2.151-3.327-1.2-6.053s3.092-4.561,4.694-4.007S526.694,635.007,525.749,637.733Zm-31.436-5.518a4.9,4.9,0,0,0,3.192,1.334,3.769,3.769,0,0,0,1.037-.145,4.512,4.512,0,0,0,2.97-3.237,9.867,9.867,0,0,0-2.743-9.634,4.516,4.516,0,0,0-4.229-1.189c-2.754.784-4.033,4.487-2.912,8.428A9.259,9.259,0,0,0,494.313,632.215Zm0.772-10.961a1.8,1.8,0,0,1,.487-0.068,3.1,3.1,0,0,1,1.894.845,7.9,7.9,0,0,1,2.148,7.549,2.242,2.242,0,0,1-4,1.137,7.272,7.272,0,0,1-2.079-3.488C492.749,624.453,493.457,621.718,495.085,621.254Z" transform="translate(-479.719 -619.188)"/>
</svg>
