<svg xmlns="http://www.w3.org/2000/svg" width="50.031" height="43" viewBox="0 0 50.031 43">
  <defs>
    <style>
      .cls-1 {
        fill: #212121;
        fill-rule: evenodd;
      }
    </style>
  </defs>
  <path class="cls-1" d="M405.009,1062.95h-7.141a5.126,5.126,0,0,0-5.107-4.95H379.215a5.126,5.126,0,0,0-5.107,4.95h-7.141a6,6,0,0,0-5.983,6v26.04a6,6,0,0,0,5.983,6.01h38.042a6,6,0,0,0,5.984-6.01v-26.04A6,6,0,0,0,405.009,1062.95Zm-25.794-2.78h13.546a2.954,2.954,0,0,1,2.936,2.78H376.279A2.955,2.955,0,0,1,379.215,1060.17Zm29.616,34.82a3.834,3.834,0,0,1-3.822,3.84H366.967a3.833,3.833,0,0,1-3.822-3.84v-26.04a3.831,3.831,0,0,1,3.822-3.83h38.042a3.832,3.832,0,0,1,3.822,3.83v26.04Zm-22.843-23.51a10.49,10.49,0,1,0,10.448,10.49A10.484,10.484,0,0,0,385.988,1071.48Zm0,18.81a8.32,8.32,0,1,1,8.287-8.32A8.312,8.312,0,0,1,385.988,1090.29Z" transform="translate(-360.969 -1058)"/>
</svg>
