<svg xmlns="http://www.w3.org/2000/svg" width="50" height="47.03" viewBox="0 0 50 47.03">
  <defs>
    <style>
      .cls-1 {
        fill: #FFFFFF;
        fill-rule: evenodd;
      }
    </style>
  </defs>
  <path class="cls-1" d="M794.942,1103.99a3.941,3.941,0,0,1-3.787-2.92H776.469a1.04,1.04,0,0,1,0-2.08h14.686a3.945,3.945,0,0,1,2.748-2.76v-2.79h-9.234c-8.125,0-14.735-5.1-14.735-11.36,0-3.84,2.671-7.52,6.971-9.59a9.458,9.458,0,0,1,9.476-8.64,9.358,9.358,0,0,1,2.776.42,14.535,14.535,0,0,1,12.633-7.29,14.777,14.777,0,0,1,14.738,14.79,14.2,14.2,0,0,1-.3,2.8,9.994,9.994,0,0,1,3.719,7.51c0,6.26-6.612,11.36-14.738,11.36h-9.231v2.79a3.945,3.945,0,0,1,2.748,2.76h14.686a1.04,1.04,0,0,1,0,2.08H798.73A3.942,3.942,0,0,1,794.942,1103.99Zm0-5.83a1.87,1.87,0,1,0,1.861,1.87A1.868,1.868,0,0,0,794.942,1098.16Zm-8.561-32.22a7.491,7.491,0,0,0-7.491,7.3,1.048,1.048,0,0,1-.622.92c-3.858,1.69-6.254,4.73-6.254,7.92,0,5.11,5.677,9.27,12.655,9.27h20.544c6.98,0,12.659-4.16,12.659-9.27a8.1,8.1,0,0,0-3.432-6.29,1.043,1.043,0,0,1-.371-1.06,12.608,12.608,0,0,0-23.5-8.71,1.038,1.038,0,0,1-.925.57,1.065,1.065,0,0,1-.393-0.08A7.52,7.52,0,0,0,786.381,1065.94Z" transform="translate(-769.938 -1056.97)"/>
</svg>
