<svg xmlns="http://www.w3.org/2000/svg" width="50" height="50" viewBox="0 0 22 22">
  <defs>
    <style>
      .cls-1 {
        fill: #fff;
        fill-rule: evenodd;
      }
    </style>
  </defs>
  <path class="cls-1" d="M1524.33,60v1.151a7.183,7.183,0,1,1-2.69.523,7.213,7.213,0,0,1,2.69-.523V60m0,0a8.333,8.333,0,1,0,7.72,5.217A8.323,8.323,0,0,0,1524.33,60h0Zm6.25,13.772-0.82.813,7.25,7.254a0.583,0.583,0,0,0,.82,0,0.583,0.583,0,0,0,0-.812l-7.25-7.254h0Zm-0.69-7.684,0.01,0c0-.006-0.01-0.012-0.01-0.018s-0.01-.015-0.01-0.024a6,6,0,0,0-7.75-3.3l-0.03.009-0.02.006v0a0.6,0.6,0,0,0-.29.293,0.585,0.585,0,0,0,.31.756,0.566,0.566,0,0,0,.41.01V63.83a4.858,4.858,0,0,1,6.32,2.688l0.01,0a0.559,0.559,0,0,0,.29.29,0.57,0.57,0,0,0,.75-0.305A0.534,0.534,0,0,0,1529.89,66.089Z" transform="translate(-1516 -60)"/>
</svg>
